<svg xmlns="http://www.w3.org/2000/svg" width="487.066" height="603.505" viewBox="0 0 487.066 603.505">
  <g id="Group_33" data-name="Group 33" transform="translate(-613.7 -113.643)">
    <path id="Path_38" data-name="Path 38" d="M834.035,612.271C761.41,723.591,612.292,754.959,500.972,682.333S358.284,460.59,430.911,349.27,869.173,117.959,869.173,117.959,906.661,500.952,834.035,612.271Z" transform="translate(221.921 -4.316)" fill="#2c4251"/>
    <text id="Scion" transform="translate(663 502)" fill="#fff" font-size="152" font-family="FredokaOne-Regular, Fredoka One"><tspan x="0" y="0">Scion</tspan></text>
    <path id="Path_40" data-name="Path 40" d="M240.258,365.13a18.3,18.3,0,0,1,1.072,24.725,15.758,15.758,0,0,1-23.232,1.14c-6.711-6.513-10.793-34.158-10.793-34.158S233.547,358.617,240.258,365.13Z" transform="matrix(0.174, 0.985, -0.985, 0.174, 1180.324, 107.867)" fill="#b6c649"/>
  </g>
</svg>
