<svg xmlns="http://www.w3.org/2000/svg" width="25.692" height="25.692" viewBox="0 0 25.692 25.692"><defs><style>.a{fill:#ff715b;}</style></defs><path class="a" d="M10,.188a9.813,9.813,0,1,0,6.063,17.5l.875.875a1.843,1.843,0,0,0,.344,2.156l4.594,4.625a1.837,1.837,0,0,0,2.594,0l.875-.875a1.837,1.837,0,0,0,0-2.594l-4.625-4.594a1.819,1.819,0,0,0-2.156-.312l-.875-.875A9.809,9.809,0,0,0,10,.188ZM10,2a8,8,0,1,1-8,8A8,8,0,0,1,10,2ZM4.938,7.469a5.474,5.474,0,0,0,4.656,8.344,5.532,5.532,0,0,0,3.156-1,6.8,6.8,0,0,1-.75.031A7.045,7.045,0,0,1,4.938,7.781C4.938,7.676,4.934,7.574,4.938,7.469Z" transform="translate(-0.188 -0.188)"/></svg>